# xmcd CD database file
#
# Track frame offsets:
#	150
#	21475
#	35407
#	50677
#	69587
#	92312
#	112124
#	128945
#	145365
#	180377
#
# Disc length: 2473 seconds
#
# Revision: 0
# Processed by: cddbd v1.5.1PL0 Copyright (c) Steve Scherf et al.
# Submitted via: CDex 1.51
#
DISCID=8d09a70a
DTITLE=The Alan Marcus Blue Project - Kicked Around Blues
DYEAR=2000
DGENRE=Blues
TTITLE0=Kicked Around Blues
TTITLE1=Blue Octaver
TTITLE2=Instra Mental
TTITLE3=Broken Wing
TTITLE4=Burn and Fade Away
TTITLE5=Soul Searching
TTITLE6=Traffic Jam
TTITLE7=Forgive Me
TTITLE8=Waiting for You
TTITLE9=So Long
EXTD=YEAR: 2000
EXTT0=
EXTT1=
EXTT2=
EXTT3=
EXTT4=
EXTT5=
EXTT6=
EXTT7=
EXTT8=
EXTT9=
PLAYORDER=
